<svg width="2384" height="1457" viewBox="0 0 2384 1457" fill="none" xmlns="http://www.w3.org/2000/svg">
<rect width="2384" height="1457" fill="url(#paint0_linear_39_10)"/>
<path d="M1192.42 737.846C1173.68 737.846 1137.87 781.111 1137.87 709.63C1137.87 638.148 1051.37 647.553 1051.37 709.629C1051.37 709.629 946 574.553 946 491.423C946 355.327 1056.33 245 1192.42 245C1328.52 245 1438.85 355.327 1438.85 491.423C1438.85 574.553 1392.8 648.069 1329.74 692.7C1329.74 636.267 1246.97 638.148 1246.97 692.7C1229.43 696.665 1211.17 737.846 1192.42 737.846Z" fill="white"/>
<rect x="1438.88" y="446.278" width="763.723" height="109.103" rx="42" transform="rotate(90 1438.88 446.278)" fill="white"/>
<rect x="1247.01" y="446.278" width="504.132" height="109.103" rx="42" transform="rotate(90 1247.01 446.278)" fill="white"/>
<rect x="1051.38" y="446.278" width="707.29" height="105.341" rx="42" transform="rotate(90 1051.38 446.278)" fill="white"/>
<rect x="1068" y="396.372" width="36.6473" height="189.786" rx="18.3237" transform="rotate(-45 1068 396.372)" fill="url(#paint1_linear_39_10)"/>
<rect x="1291.82" y="393.452" width="33.5835" height="155.751" rx="16.7917" transform="rotate(45 1291.82 393.452)" fill="url(#paint2_linear_39_10)"/>
<defs>
<linearGradient id="paint0_linear_39_10" x1="0" y1="0" x2="2384" y2="1457" gradientUnits="userSpaceOnUse">
<stop stop-color="#7254EB"/>
<stop offset="1" stop-color="#1E0196"/>
</linearGradient>
<linearGradient id="paint1_linear_39_10" x1="1065.8" y1="379.971" x2="1272.73" y2="424.738" gradientUnits="userSpaceOnUse">
<stop stop-color="#7254EB"/>
<stop offset="1" stop-color="#1D096C"/>
</linearGradient>
<linearGradient id="paint2_linear_39_10" x1="1289.81" y1="379.992" x2="1477.36" y2="425.301" gradientUnits="userSpaceOnUse">
<stop stop-color="#7254EB"/>
<stop offset="1" stop-color="#1D096C"/>
</linearGradient>
</defs>
</svg>
