<svg width="530" height="530" viewBox="0 0 530 530" fill="none" xmlns="http://www.w3.org/2000/svg">
<rect width="530" height="530"/>
<path d="M269.984 265.008C269.984 273.224 288.945 288.915 257.619 288.915C226.293 288.915 230.415 326.822 257.619 326.822C257.619 326.822 198.423 373 161.992 373C102.35 373 54 324.651 54 265.008C54 205.366 102.35 157.016 161.992 157.016C198.423 157.016 230.641 177.196 250.199 204.829C225.468 204.829 226.293 241.102 250.199 241.102C251.937 248.792 269.984 256.793 269.984 265.008Z" fill="#B17AF8"/>
<rect x="142.207" y="157" width="334.693" height="47.8133" rx="23.9067" fill="#B17AF8"/>
<rect x="142.207" y="241.085" width="220.931" height="47.8133" rx="23.9067" fill="#B17AF8"/>
<rect x="142.207" y="326.82" width="309.962" height="46.1646" rx="23.0823" fill="#B17AF8"/>
<path d="M149.428 271.118C149.678 271.818 149.853 272.618 149.953 273.518C150.103 274.368 150.178 275.243 150.178 276.143C150.178 277.043 150.103 277.943 149.953 278.843C149.853 279.693 149.703 280.443 149.503 281.093C148.703 283.893 147.103 286.243 144.703 288.143C142.303 289.993 139.553 291.343 136.453 292.193C133.403 293.043 130.228 293.343 126.928 293.093C123.678 292.843 120.778 292.018 118.228 290.618C116.628 289.718 115.253 288.618 114.103 287.318C112.953 286.018 111.978 284.568 111.178 282.968C110.878 282.418 110.678 281.793 110.578 281.093C110.528 280.343 110.603 279.643 110.803 278.993C111.003 278.293 111.328 277.693 111.778 277.193C112.228 276.643 112.853 276.268 113.653 276.068C114.153 275.968 114.703 275.918 115.303 275.918C115.953 275.918 116.578 276.018 117.178 276.218C117.778 276.368 118.328 276.643 118.828 277.043C119.328 277.393 119.728 277.893 120.028 278.543C120.578 279.593 121.353 280.568 122.353 281.468C123.403 282.318 124.503 283.018 125.653 283.568C127.303 284.118 128.953 284.343 130.603 284.243C132.303 284.143 133.828 283.768 135.178 283.118C136.578 282.468 137.703 281.593 138.553 280.493C139.403 279.343 139.828 278.043 139.828 276.593C139.828 275.393 139.653 274.418 139.303 273.668C138.953 272.868 138.453 272.218 137.803 271.718C137.203 271.168 136.453 270.718 135.553 270.368C134.703 270.018 133.753 269.718 132.703 269.468C131.503 269.218 130.278 269.043 129.028 268.943C127.828 268.843 126.603 268.718 125.353 268.568C124.103 268.418 122.878 268.218 121.678 267.968C120.478 267.718 119.303 267.343 118.153 266.843C115.853 265.893 114.103 264.443 112.903 262.493C111.703 260.543 110.978 258.443 110.728 256.193C110.528 253.943 110.803 251.718 111.553 249.518C112.303 247.268 113.503 245.343 115.153 243.743C116.753 242.293 118.653 241.268 120.853 240.668C123.103 240.018 125.578 239.643 128.278 239.543C129.778 239.493 131.278 239.543 132.778 239.693C134.328 239.843 135.803 240.093 137.203 240.443C138.653 240.793 139.978 241.243 141.178 241.793C142.428 242.343 143.503 242.993 144.403 243.743C145.053 244.243 145.703 244.918 146.353 245.768C147.003 246.568 147.503 247.443 147.853 248.393C148.203 249.293 148.303 250.168 148.153 251.018C148.053 251.868 147.528 252.593 146.578 253.193C145.778 253.693 145.003 253.918 144.253 253.868C143.553 253.768 142.878 253.543 142.228 253.193C141.578 252.793 140.953 252.343 140.353 251.843C139.753 251.343 139.203 250.893 138.703 250.493C137.353 249.493 135.678 248.818 133.678 248.468C131.678 248.118 129.803 248.043 128.053 248.243C126.953 248.393 125.928 248.643 124.978 248.993C124.028 249.343 123.203 249.818 122.503 250.418C121.853 251.018 121.328 251.768 120.928 252.668C120.578 253.518 120.453 254.493 120.553 255.593C120.603 256.393 120.828 257.068 121.228 257.618C121.678 258.168 122.203 258.618 122.803 258.968C123.453 259.318 124.153 259.593 124.903 259.793C125.653 259.993 126.403 260.143 127.153 260.243C129.403 260.543 131.653 260.768 133.903 260.918C136.153 261.068 138.353 261.568 140.503 262.418C142.703 263.268 144.578 264.418 146.128 265.868C147.678 267.318 148.778 269.068 149.428 271.118ZM190.148 244.568C192.048 246.318 193.448 248.418 194.348 250.868C195.248 253.268 195.598 255.668 195.398 258.068C195.198 260.368 194.473 262.493 193.223 264.443C191.973 266.343 190.073 267.793 187.523 268.793C185.523 269.643 183.548 270.243 181.598 270.593C179.648 270.943 177.498 271.218 175.148 271.418C174.098 271.518 173.198 271.593 172.448 271.643C171.748 271.643 170.923 271.668 169.973 271.718C169.773 271.718 169.423 271.718 168.923 271.718C168.473 271.718 168.148 271.743 167.948 271.793V287.318C167.798 288.268 167.598 289.243 167.348 290.243C167.148 291.243 166.573 292.018 165.623 292.568C165.073 292.868 164.398 293.043 163.598 293.093C162.798 293.143 162.073 293.118 161.423 293.018C160.723 292.918 160.123 292.743 159.623 292.493C159.173 292.193 158.798 291.693 158.498 290.993C158.298 290.543 158.098 290.043 157.898 289.493C157.748 288.893 157.673 288.168 157.673 287.318V245.843C157.673 245.493 157.698 245.168 157.748 244.868C157.798 244.568 157.848 244.268 157.898 243.968C157.998 243.718 158.073 243.443 158.123 243.143C158.173 242.843 158.248 242.568 158.348 242.318C158.448 242.068 158.548 241.843 158.648 241.643C158.798 241.443 158.973 241.268 159.173 241.118C159.423 240.868 159.798 240.643 160.298 240.443C160.848 240.243 161.648 240.143 162.698 240.143H162.848C164.398 240.043 166.123 239.968 168.023 239.918C169.923 239.818 171.498 239.843 172.748 239.993C173.448 240.093 174.098 240.168 174.698 240.218C175.298 240.218 175.873 240.243 176.423 240.293C177.023 240.343 177.623 240.393 178.223 240.443C178.823 240.493 179.423 240.568 180.023 240.668C180.523 240.768 180.973 240.843 181.373 240.893C181.823 240.943 182.273 241.018 182.723 241.118C183.123 241.218 183.548 241.318 183.998 241.418C184.498 241.518 184.948 241.693 185.348 241.943C186.398 242.243 187.273 242.618 187.973 243.068C188.673 243.518 189.398 244.018 190.148 244.568ZM185.648 256.943C185.698 255.743 185.448 254.693 184.898 253.793C184.398 252.893 183.673 252.143 182.723 251.543C181.773 250.943 180.698 250.468 179.498 250.118C178.298 249.768 177.098 249.518 175.898 249.368C175.598 249.368 175.173 249.368 174.623 249.368C174.123 249.318 173.573 249.293 172.973 249.293C172.373 249.243 171.798 249.218 171.248 249.218C170.748 249.168 170.348 249.143 170.048 249.143C169.798 249.093 169.498 249.068 169.148 249.068C168.798 249.068 168.398 249.068 167.948 249.068C167.998 250.618 168.023 252.118 168.023 253.568C168.023 254.968 168.023 256.493 168.023 258.143C167.973 259.043 167.948 259.943 167.948 260.843C167.948 261.743 167.948 262.618 167.948 263.468L172.598 263.393C173.798 263.393 175.123 263.318 176.573 263.168C178.023 263.018 179.398 262.718 180.698 262.268C181.998 261.818 183.098 261.168 183.998 260.318C184.948 259.468 185.498 258.343 185.648 256.943Z" fill="white"/>
</svg>